<svg width="45" height="46" viewBox="0 0 45 46" fill="none" xmlns="http://www.w3.org/2000/svg">
<path d="M12.8125 45.0625C10.5625 45.0625 8.55208 44.3542 6.78125 42.9375C5.01042 41.5208 3.79167 39.7083 3.125 37.5L0 27.5H45L41.875 37.5C41.1667 39.7083 39.9375 41.5208 38.1875 42.9375C36.4375 44.3542 34.4375 45.0625 32.1875 45.0625H12.8125ZM12.8125 40H32.1875C33.3125 40 34.3125 39.6458 35.1875 38.9375C36.0625 38.2292 36.6667 37.3333 37 36.25L38.1875 32.5H6.8125L7.9375 36.25C8.27083 37.3333 8.88542 38.2292 9.78125 38.9375C10.6771 39.6458 11.6875 40 12.8125 40ZM22.5 17.5L16 19.6875C15.6667 19.8125 15.3229 19.8958 14.9688 19.9375C14.6146 19.9792 14.2708 20 13.9375 20C13.6458 20 13.3646 19.9792 13.0938 19.9375C12.8229 19.8958 12.5625 19.8333 12.3125 19.75C11.6042 20.6667 11.0417 21.6771 10.625 22.7812C10.2083 23.8854 10 25.0417 10 26.25C10 26.4583 10.0104 26.6667 10.0312 26.875C10.0521 27.0833 10.0833 27.2917 10.125 27.5H5.125C5.08333 27.2917 5.05208 27.0833 5.03125 26.875C5.01042 26.6667 5 26.4583 5 26.25C5 24.5 5.29167 22.8125 5.875 21.1875C6.45833 19.5625 7.29167 18.0833 8.375 16.75C8.125 16.2917 7.91667 15.7917 7.75 15.25C7.58333 14.7083 7.5 14.1458 7.5 13.5625C7.5 11.0625 8.30208 8.90625 9.90625 7.09375C11.5104 5.28125 13.5417 4.20833 16 3.875C16.6667 2.66667 17.5833 1.71875 18.75 1.03125C19.9167 0.34375 21.1667 0 22.5 0C23.8333 0 25.0938 0.34375 26.2812 1.03125C27.4688 1.71875 28.3958 2.66667 29.0625 3.875C30.7292 4.08333 32.1979 4.67708 33.4688 5.65625C34.7396 6.63542 35.7292 7.83333 36.4375 9.25L40.75 2.4375L45 5.125L37.125 17.4375C38 18.7708 38.6979 20.1771 39.2188 21.6562C39.7396 23.1354 40 24.6667 40 26.25C40 26.4583 40.0104 26.6667 40.0312 26.875C40.0521 27.0833 40.0208 27.2917 39.9375 27.5H34.875C34.9583 27.2917 35 27.0833 35 26.875V26.25C35 25.0417 34.8021 23.8854 34.4062 22.7812C34.0104 21.6771 33.4375 20.6667 32.6875 19.75C32.4375 19.8333 32.1771 19.8958 31.9062 19.9375C31.6354 19.9792 31.3542 20 31.0625 20C30.7292 20 30.3854 19.9792 30.0312 19.9375C29.6771 19.8958 29.3333 19.8125 29 19.6875L22.5 17.5ZM22.5 12.25L30.5625 14.9375C31.0208 15.1042 31.4583 15.0417 31.875 14.75C32.2917 14.4583 32.5 14.0625 32.5 13.5625C32.5 12.3542 32.1042 11.3125 31.3125 10.4375C30.5208 9.5625 29.5208 9.04167 28.3125 8.875L25.875 8.5L24.625 6.3125C24.4167 5.89583 24.125 5.57292 23.75 5.34375C23.375 5.11458 22.9583 5 22.5 5C22.0417 5 21.6146 5.11458 21.2188 5.34375C20.8229 5.57292 20.5208 5.89583 20.3125 6.3125L19.125 8.5L16.625 8.875C15.4167 9.04167 14.4271 9.5625 13.6562 10.4375C12.8854 11.3125 12.5 12.3542 12.5 13.5625C12.5 14.0625 12.6979 14.4583 13.0938 14.75C13.4896 15.0417 13.9167 15.1042 14.375 14.9375L22.5 12.25Z" fill="#1188EE"/>
</svg>
