<svg width="128" height="344" viewBox="0 0 128 344" fill="none" xmlns="http://www.w3.org/2000/svg">
<path d="M15.3125 175.125C13.0625 175.125 11.0521 174.417 9.28125 173C7.51042 171.583 6.29167 169.771 5.625 167.562L2.5 157.562H47.5L44.375 167.562C43.6667 169.771 42.4375 171.583 40.6875 173C38.9375 174.417 36.9375 175.125 34.6875 175.125H15.3125ZM15.3125 170.062H34.6875C35.8125 170.062 36.8125 169.708 37.6875 169C38.5625 168.292 39.1667 167.396 39.5 166.312L40.6875 162.562H9.3125L10.4375 166.312C10.7708 167.396 11.3854 168.292 12.2812 169C13.1771 169.708 14.1875 170.062 15.3125 170.062ZM25 147.562L18.5 149.75C18.1667 149.875 17.8229 149.958 17.4688 150C17.1146 150.042 16.7708 150.062 16.4375 150.062C16.1458 150.062 15.8646 150.042 15.5938 150C15.3229 149.958 15.0625 149.896 14.8125 149.812C14.1042 150.729 13.5417 151.74 13.125 152.844C12.7083 153.948 12.5 155.104 12.5 156.312C12.5 156.521 12.5104 156.729 12.5312 156.938C12.5521 157.146 12.5833 157.354 12.625 157.562H7.625C7.58333 157.354 7.55208 157.146 7.53125 156.938C7.51042 156.729 7.5 156.521 7.5 156.312C7.5 154.562 7.79167 152.875 8.375 151.25C8.95833 149.625 9.79167 148.146 10.875 146.812C10.625 146.354 10.4167 145.854 10.25 145.312C10.0833 144.771 10 144.208 10 143.625C10 141.125 10.8021 138.969 12.4062 137.156C14.0104 135.344 16.0417 134.271 18.5 133.938C19.1667 132.729 20.0833 131.781 21.25 131.094C22.4167 130.406 23.6667 130.062 25 130.062C26.3333 130.062 27.5938 130.406 28.7812 131.094C29.9688 131.781 30.8958 132.729 31.5625 133.938C33.2292 134.146 34.6979 134.74 35.9688 135.719C37.2396 136.698 38.2292 137.896 38.9375 139.312L43.25 132.5L47.5 135.188L39.625 147.5C40.5 148.833 41.1979 150.24 41.7188 151.719C42.2396 153.198 42.5 154.729 42.5 156.312C42.5 156.521 42.5104 156.729 42.5312 156.938C42.5521 157.146 42.5208 157.354 42.4375 157.562H37.375C37.4583 157.354 37.5 157.146 37.5 156.938V156.312C37.5 155.104 37.3021 153.948 36.9062 152.844C36.5104 151.74 35.9375 150.729 35.1875 149.812C34.9375 149.896 34.6771 149.958 34.4062 150C34.1354 150.042 33.8542 150.062 33.5625 150.062C33.2292 150.062 32.8854 150.042 32.5312 150C32.1771 149.958 31.8333 149.875 31.5 149.75L25 147.562ZM25 142.312L33.0625 145C33.5208 145.167 33.9583 145.104 34.375 144.812C34.7917 144.521 35 144.125 35 143.625C35 142.417 34.6042 141.375 33.8125 140.5C33.0208 139.625 32.0208 139.104 30.8125 138.938L28.375 138.562L27.125 136.375C26.9167 135.958 26.625 135.635 26.25 135.406C25.875 135.177 25.4583 135.062 25 135.062C24.5417 135.062 24.1146 135.177 23.7188 135.406C23.3229 135.635 23.0208 135.958 22.8125 136.375L21.625 138.562L19.125 138.938C17.9167 139.104 16.9271 139.625 16.1562 140.5C15.3854 141.375 15 142.417 15 143.625C15 144.125 15.1979 144.521 15.5938 144.812C15.9896 145.104 16.4167 145.167 16.875 145L25 142.312Z" fill="#E2EBF2" fill-opacity="0.3"/>
<path d="M95.3125 343.125C93.0625 343.125 91.0521 342.417 89.2812 341C87.5104 339.583 86.2917 337.771 85.625 335.562L82.5 325.562H127.5L124.375 335.562C123.667 337.771 122.438 339.583 120.688 341C118.938 342.417 116.938 343.125 114.688 343.125H95.3125ZM95.3125 338.062H114.688C115.812 338.062 116.812 337.708 117.688 337C118.562 336.292 119.167 335.396 119.5 334.312L120.688 330.562H89.3125L90.4375 334.312C90.7708 335.396 91.3854 336.292 92.2812 337C93.1771 337.708 94.1875 338.062 95.3125 338.062ZM105 315.562L98.5 317.75C98.1667 317.875 97.8229 317.958 97.4688 318C97.1146 318.042 96.7708 318.062 96.4375 318.062C96.1458 318.062 95.8646 318.042 95.5938 318C95.3229 317.958 95.0625 317.896 94.8125 317.812C94.1042 318.729 93.5417 319.74 93.125 320.844C92.7083 321.948 92.5 323.104 92.5 324.312C92.5 324.521 92.5104 324.729 92.5312 324.938C92.5521 325.146 92.5833 325.354 92.625 325.562H87.625C87.5833 325.354 87.5521 325.146 87.5312 324.938C87.5104 324.729 87.5 324.521 87.5 324.312C87.5 322.562 87.7917 320.875 88.375 319.25C88.9583 317.625 89.7917 316.146 90.875 314.812C90.625 314.354 90.4167 313.854 90.25 313.312C90.0833 312.771 90 312.208 90 311.625C90 309.125 90.8021 306.969 92.4062 305.156C94.0104 303.344 96.0417 302.271 98.5 301.938C99.1667 300.729 100.083 299.781 101.25 299.094C102.417 298.406 103.667 298.062 105 298.062C106.333 298.062 107.594 298.406 108.781 299.094C109.969 299.781 110.896 300.729 111.562 301.938C113.229 302.146 114.698 302.74 115.969 303.719C117.24 304.698 118.229 305.896 118.938 307.312L123.25 300.5L127.5 303.188L119.625 315.5C120.5 316.833 121.198 318.24 121.719 319.719C122.24 321.198 122.5 322.729 122.5 324.312C122.5 324.521 122.51 324.729 122.531 324.938C122.552 325.146 122.521 325.354 122.438 325.562H117.375C117.458 325.354 117.5 325.146 117.5 324.938V324.312C117.5 323.104 117.302 321.948 116.906 320.844C116.51 319.74 115.938 318.729 115.188 317.812C114.938 317.896 114.677 317.958 114.406 318C114.135 318.042 113.854 318.062 113.562 318.062C113.229 318.062 112.885 318.042 112.531 318C112.177 317.958 111.833 317.875 111.5 317.75L105 315.562ZM105 310.312L113.062 313C113.521 313.167 113.958 313.104 114.375 312.812C114.792 312.521 115 312.125 115 311.625C115 310.417 114.604 309.375 113.812 308.5C113.021 307.625 112.021 307.104 110.812 306.938L108.375 306.562L107.125 304.375C106.917 303.958 106.625 303.635 106.25 303.406C105.875 303.177 105.458 303.062 105 303.062C104.542 303.062 104.115 303.177 103.719 303.406C103.323 303.635 103.021 303.958 102.812 304.375L101.625 306.562L99.125 306.938C97.9167 307.104 96.9271 307.625 96.1562 308.5C95.3854 309.375 95 310.417 95 311.625C95 312.125 95.1979 312.521 95.5938 312.812C95.9896 313.104 96.4167 313.167 96.875 313L105 310.312Z" fill="#E2EBF2" fill-opacity="0.3"/>
<path d="M44 45.0625L28.125 29.1875L31.625 25.6875L47.5 41.5625L44 45.0625ZM9.875 43.3125C7.375 40.8125 5.52083 38 4.3125 34.875C3.10417 31.75 2.5 28.5625 2.5 25.3125C2.5 22.0625 3.10417 18.8958 4.3125 15.8125C5.52083 12.7292 7.375 9.9375 9.875 7.4375C12.375 4.9375 15.1771 3.07292 18.2812 1.84375C21.3854 0.614583 24.5625 0 27.8125 0C31.0625 0 34.2396 0.614583 37.3438 1.84375C40.4479 3.07292 43.25 4.9375 45.75 7.4375L9.875 43.3125ZM10.375 35.6875L13.75 32.3125C13.0833 31.4375 12.4479 30.5417 11.8438 29.625C11.2396 28.7083 10.6875 27.7917 10.1875 26.875C9.6875 25.9583 9.25 25.0417 8.875 24.125C8.5 23.2083 8.16667 22.3125 7.875 21.4375C7.41667 23.8958 7.38542 26.3542 7.78125 28.8125C8.17708 31.2708 9.04167 33.5625 10.375 35.6875ZM17.375 28.8125L31.25 14.8125C29.4583 13.4375 27.6562 12.3229 25.8438 11.4688C24.0312 10.6146 22.3333 10.0312 20.75 9.71875C19.1667 9.40625 17.7396 9.35417 16.4688 9.5625C15.1979 9.77083 14.2083 10.2292 13.5 10.9375C12.7917 11.6875 12.3333 12.6979 12.125 13.9688C11.9167 15.2396 11.9688 16.6771 12.2812 18.2812C12.5938 19.8854 13.1771 21.5833 14.0312 23.375C14.8854 25.1667 16 26.9792 17.375 28.8125ZM34.75 11.3125L38.25 7.9375C36.0417 6.60417 33.7083 5.72917 31.25 5.3125C28.7917 4.89583 26.3333 4.9375 23.875 5.4375C24.7917 5.72917 25.7083 6.0625 26.625 6.4375C27.5417 6.8125 28.4583 7.23958 29.375 7.71875C30.2917 8.19792 31.1979 8.73958 32.0938 9.34375C32.9896 9.94792 33.875 10.6042 34.75 11.3125Z" fill="#E2EBF2" fill-opacity="0.3"/>
<path d="M116 224.062L100.125 208.188L103.625 204.688L119.5 220.562L116 224.062ZM81.875 222.312C79.375 219.812 77.5208 217 76.3125 213.875C75.1042 210.75 74.5 207.562 74.5 204.312C74.5 201.062 75.1042 197.896 76.3125 194.812C77.5208 191.729 79.375 188.938 81.875 186.438C84.375 183.938 87.1771 182.073 90.2812 180.844C93.3854 179.615 96.5625 179 99.8125 179C103.062 179 106.24 179.615 109.344 180.844C112.448 182.073 115.25 183.938 117.75 186.438L81.875 222.312ZM82.375 214.688L85.75 211.312C85.0833 210.438 84.4479 209.542 83.8438 208.625C83.2396 207.708 82.6875 206.792 82.1875 205.875C81.6875 204.958 81.25 204.042 80.875 203.125C80.5 202.208 80.1667 201.312 79.875 200.438C79.4167 202.896 79.3854 205.354 79.7812 207.812C80.1771 210.271 81.0417 212.562 82.375 214.688ZM89.375 207.812L103.25 193.812C101.458 192.438 99.6562 191.323 97.8438 190.469C96.0312 189.615 94.3333 189.031 92.75 188.719C91.1667 188.406 89.7396 188.354 88.4688 188.562C87.1979 188.771 86.2083 189.229 85.5 189.938C84.7917 190.688 84.3333 191.698 84.125 192.969C83.9167 194.24 83.9688 195.677 84.2812 197.281C84.5938 198.885 85.1771 200.583 86.0312 202.375C86.8854 204.167 88 205.979 89.375 207.812ZM106.75 190.312L110.25 186.938C108.042 185.604 105.708 184.729 103.25 184.312C100.792 183.896 98.3333 183.938 95.875 184.438C96.7917 184.729 97.7083 185.062 98.625 185.438C99.5417 185.812 100.458 186.24 101.375 186.719C102.292 187.198 103.198 187.74 104.094 188.344C104.99 188.948 105.875 189.604 106.75 190.312Z" fill="#E2EBF2" fill-opacity="0.3"/>
<path d="M72 105.062V100.062C73.5833 100.062 74.7708 99.6458 75.5625 98.8125C76.3542 97.9792 77.9167 97.5625 80.25 97.5625C82.5833 97.5625 84.1875 97.9792 85.0625 98.8125C85.9375 99.6458 87.125 100.062 88.625 100.062C90.125 100.062 91.3125 99.6458 92.1875 98.8125C93.0625 97.9792 94.6667 97.5625 97 97.5625C99.3333 97.5625 100.938 97.9792 101.812 98.8125C102.688 99.6458 103.875 100.062 105.375 100.062C106.875 100.062 108.062 99.6458 108.938 98.8125C109.812 97.9792 111.417 97.5625 113.75 97.5625C116.083 97.5625 117.646 97.9792 118.438 98.8125C119.229 99.6458 120.417 100.062 122 100.062V105.062C119.542 105.062 117.927 104.646 117.156 103.812C116.385 102.979 115.25 102.562 113.75 102.562C112.25 102.562 111.062 102.979 110.188 103.812C109.312 104.646 107.708 105.062 105.375 105.062C103.042 105.062 101.438 104.646 100.562 103.812C99.6875 102.979 98.5 102.562 97 102.562C95.5 102.562 94.3125 102.979 93.4375 103.812C92.5625 104.646 90.9583 105.062 88.625 105.062C86.2917 105.062 84.6875 104.646 83.8125 103.812C82.9375 102.979 81.75 102.562 80.25 102.562C78.75 102.562 77.6146 102.979 76.8438 103.812C76.0729 104.646 74.4583 105.062 72 105.062ZM72 93.8125V88.8125C73.5833 88.8125 74.7708 88.3958 75.5625 87.5625C76.3542 86.7292 77.9167 86.3125 80.25 86.3125C82.5833 86.3125 84.1979 86.7292 85.0938 87.5625C85.9896 88.3958 87.1667 88.8125 88.625 88.8125C90.125 88.8125 91.3125 88.3958 92.1875 87.5625C93.0625 86.7292 94.6667 86.3125 97 86.3125C99.3333 86.3125 100.938 86.7292 101.812 87.5625C102.688 88.3958 103.875 88.8125 105.375 88.8125C106.875 88.8125 108.062 88.3958 108.938 87.5625C109.812 86.7292 111.417 86.3125 113.75 86.3125C116.083 86.3125 117.646 86.7292 118.438 87.5625C119.229 88.3958 120.417 88.8125 122 88.8125V93.8125C119.542 93.8125 117.927 93.3958 117.156 92.5625C116.385 91.7292 115.25 91.3125 113.75 91.3125C112.25 91.3125 111.094 91.7292 110.281 92.5625C109.469 93.3958 107.833 93.8125 105.375 93.8125C103 93.8125 101.385 93.3958 100.531 92.5625C99.6771 91.7292 98.5 91.3125 97 91.3125C95.4167 91.3125 94.2396 91.7292 93.4688 92.5625C92.6979 93.3958 91.0833 93.8125 88.625 93.8125C86.1667 93.8125 84.5312 93.3958 83.7188 92.5625C82.9062 91.7292 81.75 91.3125 80.25 91.3125C78.75 91.3125 77.6146 91.7292 76.8438 92.5625C76.0729 93.3958 74.4583 93.8125 72 93.8125ZM84.25 81.0625L92.5625 72.75L90.0625 70.25C88.6875 68.875 87.2292 67.875 85.6875 67.25C84.1458 66.625 82.25 66.3125 80 66.3125V60.0625C83.125 60.0625 85.7083 60.4062 87.75 61.0938C89.7917 61.7812 91.7917 63.1042 93.75 65.0625L109.75 81.0625C109.042 81.5208 108.354 81.8854 107.688 82.1562C107.021 82.4271 106.25 82.5625 105.375 82.5625C103.875 82.5625 102.688 82.1458 101.812 81.3125C100.938 80.4792 99.3333 80.0625 97 80.0625C94.6667 80.0625 93.0625 80.4792 92.1875 81.3125C91.3125 82.1458 90.125 82.5625 88.625 82.5625C87.75 82.5625 86.9792 82.4271 86.3125 82.1562C85.6458 81.8854 84.9583 81.5208 84.25 81.0625ZM108.75 60.0625C110.5 60.0625 111.979 60.6771 113.188 61.9062C114.396 63.1354 115 64.6042 115 66.3125C115 68.0625 114.396 69.5417 113.188 70.75C111.979 71.9583 110.5 72.5625 108.75 72.5625C107 72.5625 105.521 71.9583 104.312 70.75C103.104 69.5417 102.5 68.0625 102.5 66.3125C102.5 64.6042 103.104 63.1354 104.312 61.9062C105.521 60.6771 107 60.0625 108.75 60.0625Z" fill="#E2EBF2" fill-opacity="0.3"/>
<path d="M0 299.062V294.062C1.58333 294.062 2.77083 293.646 3.5625 292.812C4.35417 291.979 5.91667 291.562 8.25 291.562C10.5833 291.562 12.1875 291.979 13.0625 292.812C13.9375 293.646 15.125 294.062 16.625 294.062C18.125 294.062 19.3125 293.646 20.1875 292.812C21.0625 291.979 22.6667 291.562 25 291.562C27.3333 291.562 28.9375 291.979 29.8125 292.812C30.6875 293.646 31.875 294.062 33.375 294.062C34.875 294.062 36.0625 293.646 36.9375 292.812C37.8125 291.979 39.4167 291.562 41.75 291.562C44.0833 291.562 45.6458 291.979 46.4375 292.812C47.2292 293.646 48.4167 294.062 50 294.062V299.062C47.5417 299.062 45.9271 298.646 45.1562 297.812C44.3854 296.979 43.25 296.562 41.75 296.562C40.25 296.562 39.0625 296.979 38.1875 297.812C37.3125 298.646 35.7083 299.062 33.375 299.062C31.0417 299.062 29.4375 298.646 28.5625 297.812C27.6875 296.979 26.5 296.562 25 296.562C23.5 296.562 22.3125 296.979 21.4375 297.812C20.5625 298.646 18.9583 299.062 16.625 299.062C14.2917 299.062 12.6875 298.646 11.8125 297.812C10.9375 296.979 9.75 296.562 8.25 296.562C6.75 296.562 5.61458 296.979 4.84375 297.812C4.07292 298.646 2.45833 299.062 0 299.062ZM0 287.812V282.812C1.58333 282.812 2.77083 282.396 3.5625 281.562C4.35417 280.729 5.91667 280.312 8.25 280.312C10.5833 280.312 12.1979 280.729 13.0938 281.562C13.9896 282.396 15.1667 282.812 16.625 282.812C18.125 282.812 19.3125 282.396 20.1875 281.562C21.0625 280.729 22.6667 280.312 25 280.312C27.3333 280.312 28.9375 280.729 29.8125 281.562C30.6875 282.396 31.875 282.812 33.375 282.812C34.875 282.812 36.0625 282.396 36.9375 281.562C37.8125 280.729 39.4167 280.312 41.75 280.312C44.0833 280.312 45.6458 280.729 46.4375 281.562C47.2292 282.396 48.4167 282.812 50 282.812V287.812C47.5417 287.812 45.9271 287.396 45.1562 286.562C44.3854 285.729 43.25 285.312 41.75 285.312C40.25 285.312 39.0938 285.729 38.2812 286.562C37.4688 287.396 35.8333 287.812 33.375 287.812C31 287.812 29.3854 287.396 28.5312 286.562C27.6771 285.729 26.5 285.312 25 285.312C23.4167 285.312 22.2396 285.729 21.4688 286.562C20.6979 287.396 19.0833 287.812 16.625 287.812C14.1667 287.812 12.5312 287.396 11.7188 286.562C10.9062 285.729 9.75 285.312 8.25 285.312C6.75 285.312 5.61458 285.729 4.84375 286.562C4.07292 287.396 2.45833 287.812 0 287.812ZM12.25 275.062L20.5625 266.75L18.0625 264.25C16.6875 262.875 15.2292 261.875 13.6875 261.25C12.1458 260.625 10.25 260.312 8 260.312V254.062C11.125 254.062 13.7083 254.406 15.75 255.094C17.7917 255.781 19.7917 257.104 21.75 259.062L37.75 275.062C37.0417 275.521 36.3542 275.885 35.6875 276.156C35.0208 276.427 34.25 276.562 33.375 276.562C31.875 276.562 30.6875 276.146 29.8125 275.312C28.9375 274.479 27.3333 274.062 25 274.062C22.6667 274.062 21.0625 274.479 20.1875 275.312C19.3125 276.146 18.125 276.562 16.625 276.562C15.75 276.562 14.9792 276.427 14.3125 276.156C13.6458 275.885 12.9583 275.521 12.25 275.062ZM36.75 254.062C38.5 254.062 39.9792 254.677 41.1875 255.906C42.3958 257.135 43 258.604 43 260.312C43 262.062 42.3958 263.542 41.1875 264.75C39.9792 265.958 38.5 266.562 36.75 266.562C35 266.562 33.5208 265.958 32.3125 264.75C31.1042 263.542 30.5 262.062 30.5 260.312C30.5 258.604 31.1042 257.135 32.3125 255.906C33.5208 254.677 35 254.062 36.75 254.062Z" fill="#E2EBF2" fill-opacity="0.3"/>
</svg>
