<svg width="165" height="38" viewBox="0 0 165 38" fill="none" xmlns="http://www.w3.org/2000/svg">
<path d="M10.8 37.45C7.33332 37.45 4.66665 36.85 2.79999 35.65C0.933321 34.4167 -1.20848e-05 32.6167 -1.20848e-05 30.25C-1.20848e-05 29.05 0.399988 28.0667 1.19999 27.3C2.03332 26.5 3.09999 26.1 4.39999 26.1C5.26665 26.1333 5.86665 26.35 6.19999 26.75C6.56666 27.15 6.74999 27.45 6.74999 27.65C6.74999 27.7167 6.59999 27.8333 6.29999 28C5.99999 28.1333 5.69999 28.4 5.39999 28.8C5.09999 29.1667 4.94999 29.75 4.94999 30.55C4.94999 32.05 5.41665 33.25 6.34999 34.15C7.28332 35.0167 8.76666 35.45 10.8 35.45C12.2333 35.45 13.45 35.1833 14.45 34.65C15.4833 34.0833 16.2667 33.3667 16.8 32.5C17.3333 31.6 17.6 30.6833 17.6 29.75C17.6 28.35 17.2 27.2 16.4 26.3C15.6 25.4 14.55 24.6333 13.25 24C11.9833 23.3333 10.6333 22.7 9.19999 22.1C7.76666 21.5 6.39999 20.8167 5.09999 20.05C3.83332 19.2833 2.78332 18.3333 1.94999 17.2C1.11665 16.0333 0.683321 14.5833 0.649988 12.85C0.616655 10.75 1.06665 9.05 1.99999 7.75C2.93332 6.41667 4.23332 5.45 5.89999 4.85C7.56665 4.21667 9.41666 3.9 11.45 3.9C12.95 3.9 14.4167 4.11667 15.85 4.55C17.3167 4.98334 18.5167 5.66667 19.45 6.6C20.4167 7.5 20.9 8.7 20.9 10.2C20.9 11.4 20.4833 12.4 19.65 13.2C18.85 13.9667 17.8 14.35 16.5 14.35C15.6333 14.2833 15.0167 14.0667 14.65 13.7C14.3167 13.3 14.15 13 14.15 12.8C14.15 12.7 14.35 12.5833 14.75 12.45C15.15 12.2833 15.55 12.0167 15.95 11.65C16.35 11.25 16.55 10.6667 16.55 9.9C16.55 8.63334 16.0667 7.66667 15.1 7C14.1333 6.3 12.9333 5.95 11.5 5.95C9.33332 5.95 7.74999 6.46667 6.74999 7.5C5.78332 8.5 5.29999 9.63334 5.29999 10.9C5.29999 12.1333 5.63332 13.1333 6.29999 13.9C6.96665 14.6667 7.96665 15.4167 9.29999 16.15C10.8 16.95 12.3167 17.7 13.85 18.4C15.3833 19.0667 16.8 19.8167 18.1 20.65C19.4333 21.4833 20.5 22.5333 21.3 23.8C22.1 25.0333 22.5 26.6333 22.5 28.6C22.5 30.3 21.9667 31.8167 20.9 33.15C19.8667 34.4833 18.4667 35.5333 16.7 36.3C14.9333 37.0667 12.9667 37.45 10.8 37.45ZM36.1125 37.05C33.8458 37.05 32.0458 36.3667 30.7125 35C29.3792 33.6333 28.7125 31.8333 28.7125 29.6V20.35C28.7125 19.75 28.6792 19.2 28.6125 18.7C28.5792 18.1667 28.3958 17.75 28.0625 17.45C27.7292 17.1167 27.0958 16.95 26.1625 16.95C25.8625 16.95 25.5792 16.9167 25.3125 16.85C25.0792 16.75 24.9625 16.45 24.9625 15.95C24.9625 15.45 25.2292 15.15 25.7625 15.05C27.2958 14.8167 28.4625 14.5833 29.2625 14.35C30.0958 14.1167 30.7292 13.9167 31.1625 13.75C31.5958 13.5833 31.9792 13.4833 32.3125 13.45C32.5792 13.4167 32.7958 13.4667 32.9625 13.6C33.1625 13.7333 33.2625 14 33.2625 14.4V29.55C33.2625 30.65 33.4958 31.55 33.9625 32.25C34.4625 32.95 35.0792 33.4667 35.8125 33.8C36.5458 34.1333 37.2958 34.3 38.0625 34.3C39.2292 34.3 40.2458 34.1 41.1125 33.7C41.9792 33.2667 42.6792 32.7833 43.2125 32.25C43.7458 31.6833 44.0958 31.2167 44.2625 30.85V20.35C44.2625 19.75 44.2292 19.2 44.1625 18.7C44.1292 18.1667 43.9458 17.75 43.6125 17.45C43.2792 17.1167 42.6458 16.95 41.7125 16.95C41.4125 16.95 41.1292 16.9167 40.8625 16.85C40.6292 16.75 40.5125 16.45 40.5125 15.95C40.5125 15.45 40.7792 15.15 41.3125 15.05C42.8458 14.8167 44.0125 14.5833 44.8125 14.35C45.6458 14.1167 46.2792 13.9167 46.7125 13.75C47.1458 13.5833 47.5292 13.4833 47.8625 13.45C48.1292 13.4167 48.3458 13.4667 48.5125 13.6C48.7125 13.7333 48.8125 14 48.8125 14.4V31.7C48.8125 33.6667 50.1292 34.65 52.7625 34.65C53.1292 34.65 53.3625 34.75 53.4625 34.95C53.5625 35.15 53.6125 35.3667 53.6125 35.6C53.6125 36.0667 53.3292 36.35 52.7625 36.45L44.7125 37C44.4792 37 44.3458 36.9 44.3125 36.7C44.2792 36.5 44.2625 36.2667 44.2625 36V33.2H44.1625C43.5292 33.8 42.8458 34.4 42.1125 35C41.4125 35.6 40.5792 36.0833 39.6125 36.45C38.6792 36.85 37.5125 37.05 36.1125 37.05ZM56.3476 36.6C56.1143 36.6 55.9143 36.5 55.7476 36.3C55.6143 36.0667 55.5476 35.8333 55.5476 35.6C55.6143 35.1 55.7476 34.8333 55.9476 34.8C56.1476 34.7333 56.4143 34.7 56.7476 34.7C57.681 34.7 58.3143 34.55 58.6476 34.25C58.981 33.9167 59.1643 33.4833 59.1976 32.95C59.2643 32.4167 59.2976 31.8667 59.2976 31.3V19.85C59.2976 19.25 59.2643 18.7 59.1976 18.2C59.1643 17.6667 58.981 17.25 58.6476 16.95C58.3143 16.6167 57.681 16.45 56.7476 16.45C56.4476 16.45 56.1643 16.4167 55.8976 16.35C55.6643 16.25 55.5476 15.95 55.5476 15.45C55.5476 14.95 55.8143 14.65 56.3476 14.55C57.881 14.3167 59.0476 14.0833 59.8476 13.85C60.681 13.6167 61.2976 13.4167 61.6976 13.25C62.131 13.0833 62.5143 12.9833 62.8476 12.95C63.1143 12.9167 63.331 12.9667 63.4976 13.1C63.6976 13.2333 63.7976 13.5 63.7976 13.9V17H63.9476C65.081 15.9 66.2476 15 67.4476 14.3C68.6476 13.5667 69.7476 13.2 70.7476 13.2C71.9143 13.2 72.7976 13.6333 73.3976 14.5C74.031 15.3667 74.3476 16.2833 74.3476 17.25C74.3476 18.0833 74.081 18.9 73.5476 19.7C73.0143 20.4667 72.2143 20.85 71.1476 20.85C70.6143 20.85 70.181 20.75 69.8476 20.55C69.5476 20.3167 69.381 20.15 69.3476 20.05C69.3476 19.9833 69.4976 19.7833 69.7976 19.45C70.131 19.1167 70.2976 18.7 70.2976 18.2C70.2976 17.6 70.131 17.1167 69.7976 16.75C69.4976 16.3833 69.081 16.2 68.5476 16.2C67.981 16.2 67.2476 16.4833 66.3476 17.05C65.481 17.6167 64.6476 18.3 63.8476 19.1V31.3C63.8476 31.8667 63.8643 32.4167 63.8976 32.95C63.9643 33.4833 64.1643 33.9167 64.4976 34.25C64.8643 34.55 65.5143 34.7 66.4476 34.7C66.7476 34.7 66.9976 34.7333 67.1976 34.8C67.431 34.8333 67.5643 35.1 67.5976 35.6C67.5976 35.8333 67.531 36.0667 67.3976 36.3C67.2643 36.5 67.0643 36.6 66.7976 36.6C65.831 36.5333 64.931 36.4833 64.0976 36.45C63.2976 36.45 62.4476 36.45 61.5476 36.45C60.6476 36.45 59.7976 36.45 58.9976 36.45C58.1976 36.4833 57.3143 36.5333 56.3476 36.6ZM78.0379 36.6C77.7712 36.6 77.5712 36.5 77.4379 36.3C77.3045 36.0667 77.2379 35.8333 77.2379 35.6C77.2712 35.1 77.3879 34.8333 77.5879 34.8C77.7879 34.7333 78.0545 34.7 78.3879 34.7C79.3212 34.7 79.9545 34.55 80.2879 34.25C80.6545 33.9167 80.8545 33.4833 80.8879 32.95C80.9212 32.4167 80.9379 31.8667 80.9379 31.3V15.75H77.5879C77.3212 15.75 77.1045 15.65 76.9379 15.45C76.8045 15.2167 76.7379 14.9833 76.7379 14.75C76.7712 14.2167 76.8879 13.9333 77.0879 13.9C77.3212 13.8333 77.6045 13.8 77.9379 13.8H80.9379V11.7C80.9379 9.46667 81.2879 7.48334 81.9879 5.75C82.6879 4.01667 83.7212 2.63334 85.0879 1.6C86.4879 0.566669 88.1879 0.0333359 90.1879 2.98023e-06C91.2212 2.98023e-06 92.2212 0.200003 93.1879 0.600004C94.1545 1 94.9545 1.56667 95.5879 2.3C96.2212 3 96.5379 3.86667 96.5379 4.9C96.5379 5.83334 96.2545 6.7 95.6879 7.5C95.1212 8.26667 94.3045 8.65 93.2379 8.65C92.5379 8.65 91.9879 8.46667 91.5879 8.1C91.2212 7.73334 91.0379 7.48334 91.0379 7.35C91.0379 7.25 91.1712 7.1 91.4379 6.9C91.7379 6.66667 92.0212 6.33334 92.2879 5.9C92.5879 5.46667 92.7379 4.93334 92.7379 4.3C92.7379 3.56667 92.4545 2.95 91.8879 2.45C91.3545 1.91667 90.6712 1.65 89.8379 1.65C88.7379 1.65 87.8879 1.98334 87.2879 2.65C86.6879 3.31667 86.2712 4.15 86.0379 5.15C85.8045 6.15 85.6545 7.16667 85.5879 8.2C85.5545 9.23334 85.5379 10.1 85.5379 10.8V13.8H90.4379C90.7712 13.8 91.0545 13.8333 91.2879 13.9C91.5212 13.9333 91.6545 14.2167 91.6879 14.75C91.6879 14.9833 91.6045 15.2167 91.4379 15.45C91.3045 15.65 91.1045 15.75 90.8379 15.75H85.5379V31.3C85.5379 32.2667 85.6045 33 85.7379 33.5C85.9045 34 86.2379 34.3333 86.7379 34.5C87.2712 34.6333 88.0545 34.7 89.0879 34.7C89.4212 34.7 89.6879 34.7333 89.8879 34.8C90.0879 34.8333 90.2045 35.1 90.2379 35.6C90.2379 35.8333 90.1712 36.0667 90.0379 36.3C89.9379 36.5 89.7545 36.6 89.4879 36.6C88.5212 36.5333 87.4545 36.4833 86.2879 36.45C85.1212 36.45 84.1045 36.45 83.2379 36.45C82.3379 36.45 81.4879 36.45 80.6879 36.45C79.8879 36.4833 79.0045 36.5333 78.0379 36.6ZM97.1266 37.15C96.8266 37.15 96.5932 37.05 96.4266 36.85C96.2599 36.65 96.1766 36.4167 96.1766 36.15V6.95C96.1766 6.35 96.1432 5.8 96.0766 5.3C96.0432 4.76667 95.8599 4.35 95.5266 4.05C95.1932 3.71667 94.5599 3.55 93.6266 3.55C93.3266 3.55 93.0432 3.51667 92.7766 3.45C92.5432 3.35 92.4266 3.05 92.4266 2.55C92.4266 2.05 92.6932 1.75 93.2266 1.65C94.7599 1.41667 95.9266 1.18334 96.7266 0.950003C97.5599 0.71667 98.1932 0.51667 98.6266 0.350001C99.0599 0.183335 99.4432 0.0833352 99.7766 0.0500023C100.043 0.0166694 100.26 0.0666698 100.427 0.200003C100.627 0.333337 100.727 0.600003 100.727 1V16.1H100.877C101.877 15.1 102.993 14.3667 104.227 13.9C105.46 13.4333 106.643 13.2 107.777 13.2C109.743 13.2 111.51 13.7 113.077 14.7C114.677 15.7 115.943 17.0833 116.877 18.85C117.81 20.5833 118.277 22.6167 118.277 24.95C118.277 27.2167 117.743 29.2667 116.677 31.1C115.61 32.9333 114.21 34.3833 112.477 35.45C110.743 36.5167 108.86 37.05 106.827 37.05C103.86 37.05 101.293 36.2333 99.1266 34.6H98.8766C98.6432 35.1 98.4099 35.65 98.1766 36.25C97.9766 36.85 97.6266 37.15 97.1266 37.15ZM106.377 35.35C108.377 35.35 110.01 34.4333 111.277 32.6C112.543 30.7667 113.177 28.2833 113.177 25.15C113.177 23.5833 112.927 22.0833 112.427 20.65C111.96 19.2167 111.193 18.0333 110.127 17.1C109.093 16.1667 107.727 15.7 106.027 15.7C104.893 15.7 103.893 15.9 103.027 16.3C102.16 16.7 101.393 17.2667 100.727 18V31.2C100.827 31.6667 101.093 32.2333 101.527 32.9C101.993 33.5333 102.627 34.1 103.427 34.6C104.227 35.1 105.21 35.35 106.377 35.35ZM134.004 37.05C131.671 37.05 129.621 36.5 127.854 35.4C126.121 34.3 124.771 32.8667 123.804 31.1C122.837 29.3333 122.354 27.45 122.354 25.45C122.354 23.4833 122.704 21.7333 123.404 20.2C124.104 18.6667 125.021 17.3833 126.154 16.35C127.321 15.3167 128.587 14.5333 129.954 14C131.321 13.4667 132.671 13.2 134.004 13.2C136.337 13.2 138.371 13.75 140.104 14.85C141.871 15.95 143.237 17.3833 144.204 19.15C145.171 20.9167 145.654 22.8 145.654 24.8C145.654 26.7667 145.287 28.5167 144.554 30.05C143.854 31.5833 142.921 32.8667 141.754 33.9C140.621 34.9333 139.371 35.7167 138.004 36.25C136.637 36.7833 135.304 37.05 134.004 37.05ZM134.004 35.2C135.637 35.2 136.921 34.7167 137.854 33.75C138.821 32.7833 139.504 31.5167 139.904 29.95C140.337 28.35 140.554 26.6333 140.554 24.8C140.554 23.0333 140.337 21.4167 139.904 19.95C139.471 18.4833 138.771 17.3 137.804 16.4C136.837 15.5 135.571 15.05 134.004 15.05C132.371 15.05 131.071 15.5333 130.104 16.5C129.137 17.4333 128.454 18.6833 128.054 20.25C127.654 21.7833 127.454 23.4833 127.454 25.35C127.454 27.0833 127.654 28.7 128.054 30.2C128.487 31.7 129.187 32.9167 130.154 33.85C131.121 34.75 132.404 35.2 134.004 35.2ZM158.252 37.3C157.252 37.3 156.302 37.05 155.402 36.55C154.502 36.05 153.752 35.2833 153.152 34.25C152.586 33.2167 152.302 31.9167 152.302 30.35V15.65L149.402 15.75C149.169 15.75 148.986 15.6667 148.852 15.5C148.752 15.3 148.702 15.0833 148.702 14.85C148.702 14.1833 148.936 13.8 149.402 13.7C150.636 13.4667 151.569 13.0833 152.202 12.55C152.836 11.9833 153.319 11.3167 153.652 10.55C154.019 9.78334 154.352 8.95 154.652 8.05C154.752 7.78334 154.902 7.61667 155.102 7.55C155.302 7.45 155.519 7.4 155.752 7.4C155.952 7.4 156.169 7.45 156.402 7.55C156.669 7.65 156.802 7.83334 156.802 8.1L156.452 13.8L162.302 13.45C162.602 13.4167 162.802 13.5 162.902 13.7C163.002 13.9 163.052 14.1333 163.052 14.4C163.052 14.7333 162.986 15.0667 162.852 15.4C162.752 15.7333 162.619 15.9 162.452 15.9L156.852 15.75V30.95C156.852 31.9167 157.052 32.8 157.452 33.6C157.886 34.4 158.652 34.8 159.752 34.8C160.119 34.8 160.536 34.7667 161.002 34.7C161.469 34.6333 161.969 34.4833 162.502 34.25C162.636 34.1833 162.769 34.1333 162.902 34.1C163.036 34.0333 163.169 34 163.302 34C163.569 34 163.769 34.1167 163.902 34.35C164.036 34.55 164.152 34.7667 164.252 35C164.352 35.3 164.269 35.5333 164.002 35.7C162.969 36.3667 162.019 36.8 161.152 37C160.286 37.2 159.319 37.3 158.252 37.3Z" fill="white"/>
</svg>
