<svg width="50" height="45" viewBox="0 0 50 45" fill="none" xmlns="http://www.w3.org/2000/svg">
<path d="M0 45V40C1.58333 40 2.77083 39.5833 3.5625 38.75C4.35417 37.9167 5.91667 37.5 8.25 37.5C10.5833 37.5 12.1875 37.9167 13.0625 38.75C13.9375 39.5833 15.125 40 16.625 40C18.125 40 19.3125 39.5833 20.1875 38.75C21.0625 37.9167 22.6667 37.5 25 37.5C27.3333 37.5 28.9375 37.9167 29.8125 38.75C30.6875 39.5833 31.875 40 33.375 40C34.875 40 36.0625 39.5833 36.9375 38.75C37.8125 37.9167 39.4167 37.5 41.75 37.5C44.0833 37.5 45.6458 37.9167 46.4375 38.75C47.2292 39.5833 48.4167 40 50 40V45C47.5417 45 45.9271 44.5833 45.1562 43.75C44.3854 42.9167 43.25 42.5 41.75 42.5C40.25 42.5 39.0625 42.9167 38.1875 43.75C37.3125 44.5833 35.7083 45 33.375 45C31.0417 45 29.4375 44.5833 28.5625 43.75C27.6875 42.9167 26.5 42.5 25 42.5C23.5 42.5 22.3125 42.9167 21.4375 43.75C20.5625 44.5833 18.9583 45 16.625 45C14.2917 45 12.6875 44.5833 11.8125 43.75C10.9375 42.9167 9.75 42.5 8.25 42.5C6.75 42.5 5.61458 42.9167 4.84375 43.75C4.07292 44.5833 2.45833 45 0 45ZM0 33.75V28.75C1.58333 28.75 2.77083 28.3333 3.5625 27.5C4.35417 26.6667 5.91667 26.25 8.25 26.25C10.5833 26.25 12.1979 26.6667 13.0938 27.5C13.9896 28.3333 15.1667 28.75 16.625 28.75C18.125 28.75 19.3125 28.3333 20.1875 27.5C21.0625 26.6667 22.6667 26.25 25 26.25C27.3333 26.25 28.9375 26.6667 29.8125 27.5C30.6875 28.3333 31.875 28.75 33.375 28.75C34.875 28.75 36.0625 28.3333 36.9375 27.5C37.8125 26.6667 39.4167 26.25 41.75 26.25C44.0833 26.25 45.6458 26.6667 46.4375 27.5C47.2292 28.3333 48.4167 28.75 50 28.75V33.75C47.5417 33.75 45.9271 33.3333 45.1562 32.5C44.3854 31.6667 43.25 31.25 41.75 31.25C40.25 31.25 39.0938 31.6667 38.2812 32.5C37.4688 33.3333 35.8333 33.75 33.375 33.75C31 33.75 29.3854 33.3333 28.5312 32.5C27.6771 31.6667 26.5 31.25 25 31.25C23.4167 31.25 22.2396 31.6667 21.4688 32.5C20.6979 33.3333 19.0833 33.75 16.625 33.75C14.1667 33.75 12.5312 33.3333 11.7188 32.5C10.9062 31.6667 9.75 31.25 8.25 31.25C6.75 31.25 5.61458 31.6667 4.84375 32.5C4.07292 33.3333 2.45833 33.75 0 33.75ZM12.25 21L20.5625 12.6875L18.0625 10.1875C16.6875 8.8125 15.2292 7.8125 13.6875 7.1875C12.1458 6.5625 10.25 6.25 8 6.25V0C11.125 0 13.7083 0.34375 15.75 1.03125C17.7917 1.71875 19.7917 3.04167 21.75 5L37.75 21C37.0417 21.4583 36.3542 21.8229 35.6875 22.0938C35.0208 22.3646 34.25 22.5 33.375 22.5C31.875 22.5 30.6875 22.0833 29.8125 21.25C28.9375 20.4167 27.3333 20 25 20C22.6667 20 21.0625 20.4167 20.1875 21.25C19.3125 22.0833 18.125 22.5 16.625 22.5C15.75 22.5 14.9792 22.3646 14.3125 22.0938C13.6458 21.8229 12.9583 21.4583 12.25 21ZM36.75 0C38.5 0 39.9792 0.614583 41.1875 1.84375C42.3958 3.07292 43 4.54167 43 6.25C43 8 42.3958 9.47917 41.1875 10.6875C39.9792 11.8958 38.5 12.5 36.75 12.5C35 12.5 33.5208 11.8958 32.3125 10.6875C31.1042 9.47917 30.5 8 30.5 6.25C30.5 4.54167 31.1042 3.07292 32.3125 1.84375C33.5208 0.614583 35 0 36.75 0Z" fill="#1188EE"/>
</svg>
