<svg width="45" height="46" viewBox="0 0 45 46" fill="none" xmlns="http://www.w3.org/2000/svg">
<path d="M41.5 45.0625L25.625 29.1875L29.125 25.6875L45 41.5625L41.5 45.0625ZM7.375 43.3125C4.875 40.8125 3.02083 38 1.8125 34.875C0.604167 31.75 0 28.5625 0 25.3125C0 22.0625 0.604167 18.8958 1.8125 15.8125C3.02083 12.7292 4.875 9.9375 7.375 7.4375C9.875 4.9375 12.6771 3.07292 15.7812 1.84375C18.8854 0.614583 22.0625 0 25.3125 0C28.5625 0 31.7396 0.614583 34.8438 1.84375C37.9479 3.07292 40.75 4.9375 43.25 7.4375L7.375 43.3125ZM7.875 35.6875L11.25 32.3125C10.5833 31.4375 9.94792 30.5417 9.34375 29.625C8.73958 28.7083 8.1875 27.7917 7.6875 26.875C7.1875 25.9583 6.75 25.0417 6.375 24.125C6 23.2083 5.66667 22.3125 5.375 21.4375C4.91667 23.8958 4.88542 26.3542 5.28125 28.8125C5.67708 31.2708 6.54167 33.5625 7.875 35.6875ZM14.875 28.8125L28.75 14.8125C26.9583 13.4375 25.1562 12.3229 23.3438 11.4688C21.5312 10.6146 19.8333 10.0312 18.25 9.71875C16.6667 9.40625 15.2396 9.35417 13.9688 9.5625C12.6979 9.77083 11.7083 10.2292 11 10.9375C10.2917 11.6875 9.83333 12.6979 9.625 13.9688C9.41667 15.2396 9.46875 16.6771 9.78125 18.2812C10.0938 19.8854 10.6771 21.5833 11.5312 23.375C12.3854 25.1667 13.5 26.9792 14.875 28.8125ZM32.25 11.3125L35.75 7.9375C33.5417 6.60417 31.2083 5.72917 28.75 5.3125C26.2917 4.89583 23.8333 4.9375 21.375 5.4375C22.2917 5.72917 23.2083 6.0625 24.125 6.4375C25.0417 6.8125 25.9583 7.23958 26.875 7.71875C27.7917 8.19792 28.6979 8.73958 29.5938 9.34375C30.4896 9.94792 31.375 10.6042 32.25 11.3125Z" fill="#1188EE"/>
</svg>
